<svg width="28" height="28" viewBox="0 0 28 28" fill="none" xmlns="http://www.w3.org/2000/svg">
<path d="M14 7.53846C12.722 7.53846 11.4728 7.91743 10.4102 8.62743C9.34757 9.33743 8.51938 10.3466 8.03032 11.5273C7.54126 12.708 7.4133 14.0072 7.66262 15.2606C7.91194 16.514 8.52734 17.6653 9.431 18.569C10.3347 19.4727 11.486 20.0881 12.7394 20.3374C13.9928 20.5867 15.292 20.4587 16.4727 19.9697C17.6534 19.4806 18.6626 18.6524 19.3726 17.5898C20.0826 16.5272 20.4615 15.278 20.4615 14C20.4598 12.2868 19.7784 10.6444 18.567 9.43297C17.3556 8.22158 15.7132 7.54024 14 7.53846ZM14 18.3077C13.148 18.3077 12.3152 18.0551 11.6068 17.5817C10.8984 17.1084 10.3463 16.4356 10.0202 15.6485C9.69417 14.8614 9.60887 13.9952 9.77508 13.1596C9.94129 12.324 10.3516 11.5564 10.954 10.954C11.5564 10.3516 12.324 9.94129 13.1596 9.77508C13.9952 9.60887 14.8614 9.69417 15.6485 10.0202C16.4356 10.3463 17.1084 10.8984 17.5817 11.6068C18.0551 12.3152 18.3077 13.148 18.3077 14C18.3077 15.1425 17.8538 16.2381 17.046 17.046C16.2381 17.8538 15.1425 18.3077 14 18.3077ZM20.4615 0H7.53846C5.53979 0.002138 3.6236 0.797053 2.21033 2.21033C0.797053 3.6236 0.002138 5.53979 0 7.53846V20.4615C0.002138 22.4602 0.797053 24.3764 2.21033 25.7897C3.6236 27.2029 5.53979 27.9979 7.53846 28H20.4615C22.4602 27.9979 24.3764 27.2029 25.7897 25.7897C27.2029 24.3764 27.9979 22.4602 28 20.4615V7.53846C27.9979 5.53979 27.2029 3.6236 25.7897 2.21033C24.3764 0.797053 22.4602 0.002138 20.4615 0ZM25.8462 20.4615C25.8462 21.8896 25.2788 23.2592 24.269 24.269C23.2592 25.2788 21.8896 25.8462 20.4615 25.8462H7.53846C6.11037 25.8462 4.74078 25.2788 3.73096 24.269C2.72115 23.2592 2.15385 21.8896 2.15385 20.4615V7.53846C2.15385 6.11037 2.72115 4.74078 3.73096 3.73096C4.74078 2.72115 6.11037 2.15385 7.53846 2.15385H20.4615C21.8896 2.15385 23.2592 2.72115 24.269 3.73096C25.2788 4.74078 25.8462 6.11037 25.8462 7.53846V20.4615ZM22.6154 7C22.6154 7.31949 22.5206 7.63181 22.3431 7.89746C22.1656 8.16311 21.9134 8.37016 21.6182 8.49242C21.323 8.61469 20.9982 8.64668 20.6849 8.58435C20.3715 8.52202 20.0837 8.36817 19.8578 8.14225C19.6318 7.91633 19.478 7.6285 19.4157 7.31515C19.3533 7.00179 19.3853 6.67699 19.5076 6.38182C19.6298 6.08665 19.8369 5.83436 20.1025 5.65686C20.3682 5.47936 20.6805 5.38462 21 5.38462C21.4284 5.38462 21.8393 5.55481 22.1423 5.85775C22.4452 6.16069 22.6154 6.57157 22.6154 7Z" fill="#E8E8E8"/>
</svg>
